M48
; DRILL file {KiCad 8.0.7} date 2025-01-07T17:01:15+0100
; FORMAT={2:4/ absolute / inch / keep zeros}
; #@! TF.CreationDate,2025-01-07T17:01:15+01:00
; #@! TF.GenerationSoftware,Kicad,Pcbnew,8.0.7
; #@! TF.FileFunction,NonPlated,1,2,NPTH
FMAT,2
INCH
; #@! TA.AperFunction,NonPlated,NPTH,ComponentDrill
T1C0.0295
; #@! TA.AperFunction,NonPlated,NPTH,ComponentDrill
T2C0.0354
; #@! TA.AperFunction,NonPlated,NPTH,ComponentDrill
T3C0.0670
; #@! TA.AperFunction,NonPlated,NPTH,ComponentDrill
T4C0.1181
; #@! TA.AperFunction,NonPlated,NPTH,ComponentDrill
T5C0.1350
; #@! TA.AperFunction,NonPlated,NPTH,ComponentDrill
T6C0.1575
%
G90
G05
T1
X095817Y-035807
X096900Y-035807
T2
X096437Y-041043
X096437Y-042224
T3
X097736Y-029921
X097736Y-036909
X097736Y-043898
X097736Y-050886
X097736Y-057874
X102067Y-029921
X102067Y-036909
X102067Y-043898
X102067Y-050886
X102067Y-057874
X105118Y-028740
X105118Y-035728
X105118Y-042717
X105118Y-049705
X105118Y-056693
X109449Y-028740
X109449Y-035728
X109449Y-042717
X109449Y-049705
X109449Y-056693
X112500Y-026378
X112500Y-033366
X112500Y-040354
X112500Y-047343
X112500Y-054331
X116831Y-026378
X116831Y-033366
X116831Y-040354
X116831Y-047343
X116831Y-054331
X119882Y-028346
X119882Y-035335
X119882Y-042323
X119882Y-049311
X119882Y-056299
X124213Y-028346
X124213Y-035335
X124213Y-042323
X124213Y-049311
X124213Y-056299
X127264Y-031102
X127264Y-038091
X127264Y-045079
X127264Y-052067
X127264Y-059055
X131594Y-031102
X131594Y-038091
X131594Y-045079
X131594Y-052067
X131594Y-059055
X134646Y-031102
X134646Y-038091
X134646Y-045079
X134646Y-052067
X134646Y-059055
X138976Y-031102
X138976Y-038091
X138976Y-045079
X138976Y-052067
X138976Y-059055
T4
X097933Y-031398
X097933Y-038386
X097933Y-045374
X097933Y-052362
X097933Y-059350
X099902Y-032264
X099902Y-039252
X099902Y-046240
X099902Y-053228
X099902Y-060217
X105315Y-030217
X105315Y-037205
X105315Y-044193
X105315Y-051181
X105315Y-058169
X107283Y-031083
X107283Y-038071
X107283Y-045059
X107283Y-052047
X107283Y-059035
X112697Y-027854
X112697Y-034843
X112697Y-041831
X112697Y-048819
X112697Y-055807
X114665Y-028720
X114665Y-035709
X114665Y-042697
X114665Y-049685
X114665Y-056673
X120079Y-029823
X120079Y-036811
X120079Y-043799
X120079Y-050787
X120079Y-057776
X122047Y-030689
X122047Y-037677
X122047Y-044665
X122047Y-051654
X122047Y-058642
X127461Y-032579
X127461Y-039567
X127461Y-046555
X127461Y-053543
X127461Y-060531
X129429Y-033445
X129429Y-040433
X129429Y-047421
X129429Y-054409
X129429Y-061398
X134843Y-032579
X134843Y-039567
X134843Y-046555
X134843Y-053543
X134843Y-060531
X136811Y-033445
X136811Y-040433
X136811Y-047421
X136811Y-054409
X136811Y-061398
T5
X099902Y-029921
X099902Y-036909
X099902Y-043898
X099902Y-050886
X099902Y-057874
X107283Y-028740
X107283Y-035728
X107283Y-042717
X107283Y-049705
X107283Y-056693
X114665Y-026378
X114665Y-033366
X114665Y-040354
X114665Y-047343
X114665Y-054331
X122047Y-028346
X122047Y-035335
X122047Y-042323
X122047Y-049311
X122047Y-056299
X129429Y-031102
X129429Y-038091
X129429Y-045079
X129429Y-052067
X129429Y-059055
X136811Y-031102
X136811Y-038091
X136811Y-045079
X136811Y-052067
X136811Y-059055
T6
X110827Y-032382
X110827Y-053346
X118504Y-045965
X132972Y-034449
X133268Y-055413
M30
