M48
; DRILL file {KiCad 8.0.7} date 2025-01-07T17:01:15+0100
; FORMAT={2:4/ absolute / inch / keep zeros}
; #@! TF.CreationDate,2025-01-07T17:01:15+01:00
; #@! TF.GenerationSoftware,Kicad,Pcbnew,8.0.7
; #@! TF.FileFunction,Plated,1,2,PTH
FMAT,2
INCH
; #@! TA.AperFunction,Plated,PTH,ViaDrill
T1C0.0157
; #@! TA.AperFunction,Plated,PTH,ComponentDrill
T2C0.0295
; #@! TA.AperFunction,Plated,PTH,ComponentDrill
T3C0.0390
; #@! TA.AperFunction,Plated,PTH,ComponentDrill
T4C0.0430
%
G90
G05
T1
X097480Y-034803
X098740Y-041575
X098976Y-038268
X101496Y-030630
X105827Y-026142
X106220Y-039843
X106772Y-026063
X108504Y-032756
X109764Y-031732
X110157Y-030787
X113071Y-032756
X113386Y-033622
X113465Y-036063
X115669Y-031811
X116063Y-050551
X116929Y-048740
X130709Y-052205
X130709Y-053307
T2
X116240Y-037598
X116240Y-038386
T3
X102972Y-028815
X102972Y-031815
X102972Y-036787
X102972Y-039787
X102972Y-043776
X102972Y-046776
X102972Y-050764
X102972Y-053764
X102972Y-057752
X102972Y-060752
X110354Y-026453
X110354Y-029453
X110354Y-035606
X110354Y-038606
X110354Y-042594
X110354Y-045594
X110354Y-047417
X110354Y-050417
X110354Y-056571
X110354Y-059571
X117736Y-026256
X117736Y-029256
X117736Y-033244
X117736Y-036244
X117736Y-038067
X117736Y-041067
X117736Y-047220
X117736Y-050220
X117736Y-054209
X117736Y-057209
X125118Y-028224
X125118Y-031224
X125118Y-035213
X125118Y-038213
X125118Y-042201
X125118Y-045201
X125118Y-049189
X125118Y-052189
X125118Y-056177
X125118Y-059177
X132500Y-028815
X132500Y-031815
X132500Y-037969
X132500Y-040969
X132500Y-044957
X132500Y-047957
X132500Y-049780
X132500Y-052780
X132500Y-058933
X132500Y-061933
X139882Y-030980
X139882Y-033980
X139882Y-037969
X139882Y-040969
X139882Y-044957
X139882Y-047957
X139882Y-051945
X139882Y-054945
X139882Y-058933
X139882Y-061933
T4
X097945Y-027512
X097945Y-033512
X098945Y-027512
X098945Y-033512
X099945Y-027512
X099945Y-033512
X100945Y-027512
X100945Y-033512
X101945Y-027512
X101945Y-033512
X102945Y-027512
X102945Y-033512
X103945Y-027512
X103945Y-033512
X104945Y-027512
X104945Y-033512
X105945Y-027512
X105945Y-033512
X106945Y-027512
X106945Y-033512
X107945Y-027512
X107945Y-033512
X108945Y-027512
X108945Y-033512
M30
